<?xml version="1.0" encoding="UTF-8" standalone="no"?>
<!-- Created with Inkscape (http://www.inkscape.org/) -->

<svg
   xmlns:dc="http://purl.org/dc/elements/1.1/"
   xmlns:cc="http://creativecommons.org/ns#"
   xmlns:rdf="http://www.w3.org/1999/02/22-rdf-syntax-ns#"
   xmlns:svg="http://www.w3.org/2000/svg"
   xmlns="http://www.w3.org/2000/svg"
   xmlns:sodipodi="http://sodipodi.sourceforge.net/DTD/sodipodi-0.dtd"
   xmlns:inkscape="http://www.inkscape.org/namespaces/inkscape"
   id="svg3336"
   version="1.1"
   inkscape:version="0.91 r13725"
   width="90"
   height="90"
   viewBox="0 0 90 90"
   sodipodi:docname="chimney.svg"
   inkscape:export-filename="C:\Users\Eduardo\Documents\GitHub\COMP397_Assignment3\Assets\images\chimney.png"
   inkscape:export-xdpi="90"
   inkscape:export-ydpi="90">
  <metadata
     id="metadata3342">
    <rdf:RDF>
      <cc:Work
         rdf:about="">
        <dc:format>image/svg+xml</dc:format>
        <dc:type
           rdf:resource="http://purl.org/dc/dcmitype/StillImage" />
        <dc:title></dc:title>
      </cc:Work>
    </rdf:RDF>
  </metadata>
  <defs
     id="defs3340" />
  <sodipodi:namedview
     pagecolor="#ffffff"
     bordercolor="#666666"
     borderopacity="1"
     objecttolerance="10"
     gridtolerance="10"
     guidetolerance="10"
     inkscape:pageopacity="0"
     inkscape:pageshadow="2"
     inkscape:window-width="1920"
     inkscape:window-height="1017"
     id="namedview3338"
     showgrid="false"
     inkscape:zoom="4"
     inkscape:cx="101.928"
     inkscape:cy="65.895733"
     inkscape:window-x="-8"
     inkscape:window-y="-8"
     inkscape:window-maximized="1"
     inkscape:current-layer="layer1"
     showguides="false" />
  <g
     inkscape:groupmode="layer"
     id="layer3"
     inkscape:label="Layer 3"
     style="display:inline;opacity:1">
    <rect
       style="fill:#9b141a;fill-opacity:1;stroke:#000000;stroke-width:0.39946324"
       id="rect3474"
       width="9.0378551"
       height="6.1854382"
       x="8.7829113"
       y="24.740112" />
    <rect
       style="fill:#9b141a;fill-opacity:1;stroke:#000000;stroke-width:0.39946324"
       id="rect3474-2"
       width="7.2777205"
       height="6.5474524"
       x="8.863018"
       y="39.123421" />
    <rect
       style="fill:#9b141a;fill-opacity:1;stroke:#000000;stroke-width:0.39946324"
       id="rect3474-0"
       width="9.0316143"
       height="6.2915459"
       x="8.8545971"
       y="52.071678" />
    <rect
       style="fill:#9b141a;fill-opacity:1;stroke:#000000;stroke-width:0.39946324"
       id="rect3474-0-5"
       width="5.3445244"
       height="7.20331"
       x="8.8508253"
       y="65.466728" />
    <rect
       style="fill:#9b141a;fill-opacity:1;stroke:#000000;stroke-width:0.39946324"
       id="rect3474-5"
       width="19.074368"
       height="6.1854382"
       x="17.828617"
       y="24.731285" />
    <rect
       style="fill:#9b141a;fill-opacity:1;stroke:#000000;stroke-width:0.39946324"
       id="rect3474-5-1"
       width="19.074368"
       height="6.1854382"
       x="36.906765"
       y="24.725824" />
    <rect
       style="fill:#9b141a;fill-opacity:1;stroke:#000000;stroke-width:0.39946324"
       id="rect3474-5-3"
       width="7.9523826"
       height="6.2472277"
       x="55.999439"
       y="24.688799" />
    <rect
       style="fill:#9b141a;fill-opacity:1;stroke:#000000;stroke-width:0.39946324"
       id="rect3474-5-4"
       width="19.074368"
       height="6.538518"
       x="16.13534"
       y="39.11483" />
    <rect
       style="fill:#9b141a;fill-opacity:1;stroke:#000000;stroke-width:0.39946324"
       id="rect3474-5-1-4"
       width="19.074368"
       height="6.5536933"
       x="35.21349"
       y="39.109375" />
    <rect
       style="fill:#9b141a;fill-opacity:1;stroke:#000000;stroke-width:0.39946324"
       id="rect3474-5-3-1"
       width="9.6501017"
       height="6.5887103"
       x="54.30616"
       y="39.072342" />
    <rect
       style="fill:#9b141a;fill-opacity:1;stroke:#000000;stroke-width:0.39946324"
       id="rect3474-5-19"
       width="19.074368"
       height="6.2913623"
       x="17.890577"
       y="52.068127" />
    <rect
       style="fill:#9b141a;fill-opacity:1;stroke:#000000;stroke-width:0.39946324"
       id="rect3474-5-1-3"
       width="19.074368"
       height="6.3102713"
       x="36.968723"
       y="52.062664" />
    <rect
       style="fill:#9b141a;fill-opacity:1;stroke:#000000;stroke-width:0.39946324"
       id="rect3474-5-3-0"
       width="7.921175"
       height="6.3408518"
       x="56.061409"
       y="52.025639" />
    <rect
       style="fill:#9b141a;fill-opacity:1;stroke:#000000;stroke-width:0.39946324"
       id="rect3474-5-5"
       width="19.074368"
       height="7.2090631"
       x="14.189301"
       y="65.45639" />
    <rect
       style="fill:#9b141a;fill-opacity:1;stroke:#000000;stroke-width:0.39946324"
       id="rect3474-5-1-5"
       width="19.074368"
       height="7.2215462"
       x="33.267448"
       y="65.45092" />
    <rect
       style="fill:#9b141a;fill-opacity:1;stroke:#000000;stroke-width:0.39946324"
       id="rect3474-5-3-7"
       width="11.642056"
       height="7.2770934"
       x="52.36013"
       y="65.413902" />
  </g>
  <g
     inkscape:groupmode="layer"
     id="layer2"
     inkscape:label="Layer 2"
     style="display:inline">
    <rect
       style="fill:#9b141a;fill-opacity:1;stroke:#000000;stroke-width:0.39946324"
       id="rect3387"
       width="64.812912"
       height="11.584434"
       x="4.401298"
       y="4.9666843" />
    <rect
       style="fill:#c01f22;fill-opacity:1;stroke:#000000;stroke-width:0.39946324"
       id="rect3390"
       width="19.074368"
       height="8.1889963"
       x="8.7891521"
       y="16.547384" />
    <rect
       style="display:inline;fill:#c01f22;fill-opacity:1;stroke:#000000;stroke-width:0.39946324"
       id="rect3390-8"
       width="19.074368"
       height="8.1889963"
       x="27.861589"
       y="16.526192" />
    <rect
       style="display:inline;fill:#c01f22;fill-opacity:1;stroke:#000000;stroke-width:0.39946324"
       id="rect3390-6"
       width="16.999996"
       height="8.1537113"
       x="46.95874"
       y="16.548981" />
    <rect
       style="display:inline;fill:#c01f22;fill-opacity:1;stroke:#000000;stroke-width:0.39946324"
       id="rect3390-7"
       width="19.099335"
       height="8.1952381"
       x="8.848465"
       y="72.67382" />
    <rect
       style="display:inline;fill:#c01f22;fill-opacity:1;stroke:#000000;stroke-width:0.39946324"
       id="rect3390-8-8"
       width="19.074368"
       height="8.1889963"
       x="27.939621"
       y="72.671349" />
    <rect
       style="display:inline;fill:#c01f22;fill-opacity:1;stroke:#000000;stroke-width:0.39946324"
       id="rect3390-6-0"
       width="16.999996"
       height="8.228611"
       x="47.043015"
       y="72.681656" />
    <rect
       style="display:inline;fill:#c01f22;fill-opacity:1;stroke:#000000;stroke-width:0.39946324"
       id="rect3390-2"
       width="19.015299"
       height="7.1067667"
       x="8.8534517"
       y="58.357521" />
    <rect
       style="display:inline;fill:#c01f22;fill-opacity:1;stroke:#000000;stroke-width:0.39946324"
       id="rect3390-8-1"
       width="19.083956"
       height="7.0880418"
       x="27.860569"
       y="58.368706" />
    <rect
       style="display:inline;fill:#c01f22;fill-opacity:1;stroke:#000000;stroke-width:0.39946324"
       id="rect3390-6-9"
       width="17.008539"
       height="7.0575004"
       x="46.97356"
       y="58.377632" />
    <rect
       style="display:inline;fill:#c01f22;fill-opacity:1;stroke:#000000;stroke-width:0.39946324"
       id="rect3390-1"
       width="19.074368"
       height="8.1889963"
       x="8.8669615"
       y="30.938318" />
    <rect
       style="display:inline;fill:#c01f22;fill-opacity:1;stroke:#000000;stroke-width:0.39946324"
       id="rect3390-8-2"
       width="19.074368"
       height="8.1889963"
       x="27.933155"
       y="30.929604" />
    <rect
       style="display:inline;fill:#c01f22;fill-opacity:1;stroke:#000000;stroke-width:0.39946324"
       id="rect3390-6-91"
       width="16.894073"
       height="8.1537113"
       x="47.036545"
       y="30.939909" />
    <rect
       style="display:inline;fill:#c01f22;fill-opacity:1;stroke:#000000;stroke-width:0.39946324"
       id="rect3390-9"
       width="19.002941"
       height="6.4135141"
       x="8.8606596"
       y="45.659557" />
    <rect
       style="display:inline;fill:#c01f22;fill-opacity:1;stroke:#000000;stroke-width:0.39946324"
       id="rect3390-8-15"
       width="19.090321"
       height="6.4010305"
       x="27.855415"
       y="45.66523" />
    <rect
       style="display:inline;fill:#c01f22;fill-opacity:1;stroke:#000000;stroke-width:0.39946324"
       id="rect3390-6-01"
       width="17.014215"
       height="6.3734498"
       x="46.974781"
       y="45.673283" />
  </g>
  <g
     inkscape:groupmode="layer"
     id="layer1"
     inkscape:label="Layer 1"
     style="display:inline">
    <path
       style="fill:#ffffff;fill-rule:evenodd;stroke:#000000;stroke-width:0.39946324;stroke-linecap:butt;stroke-linejoin:miter;stroke-opacity:1"
       d="M 2.0111614,8.9050224 C 2.5331574,4.6511027 5.6680761,3.1836643 9.7683728,3.0115107 10.84691,3.5401884 13.195924,2.8430428 14.05213,2.8767961 c 1.169477,0.04612 2.253352,0.8581636 2.891624,1.1661003 1.799621,0.8682352 5.222471,-0.186188 10.363984,-0.4385167 3.291039,0.1220144 6.705658,1.4736092 9.996698,0.9836061 3.786372,0.2954964 5.775181,-0.6073268 8.934389,0.031636 1.126704,0.2278851 2.816031,0.4751304 4.542143,-0.1000928 1.880264,-0.6265929 3.613114,0.3098083 6.691069,-0.040747 0.444607,-0.050634 1.761576,0.00623 2.279835,0.085538 3.055156,0.9169212 3.032288,-0.4657242 4.425692,-0.4479805 3.472835,-5.06441769 7.047581,-0.010463 7.503856,4.191372 0.112989,4.1977565 -0.810697,5.7843915 -2.129188,7.3815185 -0.617701,-0.07479 -0.403793,-1.83059 -1.086728,-2.83277 -0.771154,-1.131633 -2.154435,-2.769202 -2.813914,-2.875289 -0.60989,-0.098112 -1.091614,0.00635 -1.835378,0.619896 -1.149305,0.948091 -2.755231,1.789628 -5.544424,0.275192 -4.733168,-2.4948125 -5.97587,0.02972 -6.736355,3.2477 -0.839487,1.862357 -1.653216,1.775715 -3.175576,1.761907 -0.629099,-0.0057 -1.088354,0.520317 -1.185613,0.685658 l -0.380649,0.866049 c -0.327434,0.610597 -0.478308,1.078175 -1.827741,1.284178 -3.12621,0.589758 -5.947812,-3.273216 -6.817681,-6.292547 C 37.255746,9.6717682 33.692579,8.0320683 30.752916,9.8767627 28.813765,11.071992 25.477948,11.200404 22.983965,11.073263 21.438793,10.994485 20.297599,10.435533 19.308352,10.493097 7.4989222,10.76757 6.127852,14.73386 4.8885302,16.319947 1.7166978,20.559769 1.619708,18.109629 1.377389,17.218348 1.0723796,14.875763 1.0745781,12.075327 2.0111614,8.9050188 Z"
       id="path3370"
       inkscape:connector-curvature="0"
       sodipodi:nodetypes="ccssccsssccccsssccscccccscccc" />
    <path
       style="fill:#ffffff;fill-rule:evenodd;stroke:#000000;stroke-width:0.36121076;stroke-linecap:butt;stroke-linejoin:miter;stroke-opacity:1"
       d="m 7.1155634,76.95499 c -3.0643616,-0.906402 -5.831912,1.088588 -6.4506409,4.28338 -1.10350312,5.968596 1.7313611,5.063184 5.7271378,2.993782 3.8972007,-1.663959 5.6555287,-0.109007 6.9977137,0.771458 l 4.597279,4.425057 c 1.385774,1.015161 2.483915,0.766968 4.776564,-0.56373 l 2.949048,-1.331805 5.102091,-2.4073 c 2.469188,-1.439021 3.801457,-1.078679 5.577233,-0.834563 5.040019,0.386554 6.693466,-0.43583 8.152154,-1.159445 1.53793,-0.98606 2.912954,-0.539801 4.60307,-0.452126 2.70946,0.0229 4.694322,-0.589309 6.421694,-1.14176 2.464887,-0.72989 4.852373,-0.763306 7.202295,-0.458714 l 8.056221,2.972112 c 3.982109,1.457262 6.612465,-0.08915 9.369768,-2.616044 1.608449,-1.452573 2.833706,-2.778319 6.784112,-1.959772 0,0 1.17805,0.465466 1.54938,0.613698 0.663014,0.264664 1.151631,0.141705 1.33636,-1.642341 0.194775,-2.928708 -0.711852,-4.628336 -2.07664,-5.041267 -1.610245,0.306926 -2.240992,-1.386013 -3.364523,-1.116615 -0.962326,0.230744 -2.474527,2.430857 -3.158875,2.613265 -5.602892,1.493409 -6.492467,-2.62502 -9.198987,-3.387085 -1.831455,0.43301 -2.191601,-0.214266 -2.398129,-0.347812 -3.501546,-2.264201 -5.307632,-7.736 -6.731423,-1.723269 -0.482305,1.339835 -0.07481,6.434371 -1.289678,8.08327 -0.695807,0.572385 -2.832268,-2.49798 -6.230378,-2.358893 -1.641884,0.0672 -5.207983,-0.207961 -5.260392,1.656616 -0.07144,2.541777 -3.373103,1.765339 -3.98545,1.621789 -2.705917,-0.963582 -5.377803,-2.490879 -8.18551,-1.768292 -1.78479,0.386183 -3.386319,1.521927 -5.015067,2.546341 -2.42638,1.164965 -4.459862,-0.661636 -6.225599,-1.131709 0,0 -5.374339,-0.572086 -7.205553,0.636587 -3.104743,2.049252 -9.16547,-0.565852 -9.16547,-0.565852 z"
       id="path3381"
       inkscape:connector-curvature="0"
       sodipodi:nodetypes="ccccccccccccccccsccsscsccssccccscc"
       inkscape:export-xdpi="90"
       inkscape:export-ydpi="90" />
  </g>
</svg>
